PathFileType	4	(X/Y/Z)	pose_F01_0-96.trc
DataRate	CameraRate	NumFrames	NumMarkers	Units	OrigDataRate	OrigDataStartFrame	OrigNumFrames
30	30	9	21	m	30	72	96
Frame#	Time	CHip			RHip			RKnee			RAnkle			RBigToe			RSmallToe			RHeel			LHip			LKnee			LAnkle			LBigToe			LSmallToe			LHeel			Neck			Nose			RShoulder			RElbow			RWrist			LShoulder			LElbow			LWrist			
		X1	Y1	Z1	X2	Y2	Z2	X3	Y3	Z3	X4	Y4	Z4	X5	Y5	Z5	X6	Y6	Z6	X7	Y7	Z7	X8	Y8	Z8	X9	Y9	Z9	X10	Y10	Z10	X11	Y11	Z11	X12	Y12	Z12	X13	Y13	Z13	X14	Y14	Z14	X15	Y15	Z15	X16	Y16	Z16	X17	Y17	Z17	X18	Y18	Z18	X19	Y19	Z19	X20	Y20	Z20	X21	Y21	Z21	
72	2.4	-0.20650161218196986	1.8303093942728004	-0.4987925023377235	-0.21454291971210906	1.8303658913053558	-0.4363251209464147	-0.21856109390749134	1.6943401879639302	-0.4379683463717144	-0.16517903819369048	1.7129187433288102	-0.399512669541275	-0.19976331644240278	1.6214733391516374	-0.3605781476618763	-0.19842940919339627	1.6308152898252077	-0.3352742818038906	-0.15928303717462788	1.6643269330688435	-0.35279788197621503	-0.19263872536518226	1.8300944195444036	-0.5536697681620553	-0.20012657323816038	1.69429713212213	-0.530158261242535	-0.18152691383180133	1.5689683816814943	-0.4962736209189705	-0.2194239641646559	1.5357374454739172	-0.4974978698335736	-0.20852841067404346	1.5368596047308551	-0.5216418251287218	-0.17070908680378116	1.5622941012340132	-0.4804133859799173	-0.1725336318529738	1.980322594257985	-0.5262881665115178	-0.19994221129175485	2.0416693494067437	-0.5421995794574905	-0.1886540953725971	1.9805682175667165	-0.45387337592725047	-0.2023069418491727	1.934303875438073	-0.41401367474020856	-2.070764794467089	1.9129648622510538	1.7652965248196808	-0.15872559052450108	1.9826378360038541	-0.6039655872298763	-1.0217299344693092	1.9033616751138434	0.2151152071659857	-1.0225524972082016	1.9315411143954875	0.2061585834275691
73	2.433333333333333	-0.20752297495441532	1.8271855979594867	-0.5018391489366053	-0.21572896496362387	1.8273691699638985	-0.4482321537500219	-0.21912175387287922	1.6947117569942902	-0.44196809815161425	-0.16517903819369048	1.7129187433288102	-0.399512669541275	-0.19976331644240278	1.6214733391516374	-0.3605781476618763	-0.19842940919339627	1.6308152898252077	-0.3352742818038906	-0.15928303717462788	1.6643269330688435	-0.35279788197621503	-0.1966042068201623	1.8279063698448705	-0.5576362485379394	-0.20071438611736359	1.6979591442097433	-0.5299215114924616	-0.18243360260946676	1.5735811442118208	-0.4957051184446475	-0.22343065233237994	1.534590758664706	-0.5109299802719135	-0.21342226661812197	1.535722032124091	-0.5295639444509072	-0.1719972821977358	1.5634805572357602	-0.4839240425600762	-0.17433100052666384	1.9811129315160882	-0.5239884829462701	-0.20301156608891724	2.041365287902073	-0.5348123830570434	-0.185430743568204	1.9774842827576942	-0.442765889638449	-0.22293780582104158	1.9302652310454111	-0.423594916725242	-1.1506130884837806	1.949882480976093	0.6681928672402204	-1.687876241146148	1.8901444548173165	1.067035352631697	-0.6026863341758623	1.924915612655342	-0.233331567161979	-0.6049532679874381	1.9675461144395225	-0.23691570288405617
74	2.466666666666667	-0.20353354655294303	1.8277002291128577	-0.5063558146332453	-0.2167310443688229	1.8264098303942848	-0.4514293977277556	-0.21968241383826712	1.6950833260246503	-0.44596784993151406	-0.16517903819369048	1.7129187433288102	-0.399512669541275	-0.19976331644240278	1.6214733391516374	-0.3605781476618763	-0.19842940919339627	1.6308152898252077	-0.3352742818038906	-0.15928303717462788	1.6643269330688435	-0.35279788197621503	-0.1896154299591022	1.8296994054050664	-0.561385117355587	-0.2057961319088089	1.6984638249325228	-0.5202026113022034	-0.17969065453445357	1.5667180659496134	-0.5032544195414822	-0.2255175454563831	1.5331480197143386	-0.5129539879965288	-0.21034181336357263	1.5359870897137067	-0.5335150929918631	-0.17347484083208942	1.5586305374340867	-0.5048063932471358	-0.17862885076840324	1.9798953352910305	-0.5194047120665165	-0.20405538527084283	2.0415155320204246	-0.5377149871787548	-0.18933105779593898	1.9743213890580245	-0.43730359723316387	-0.23468497071009464	1.925669653992569	-0.3881412352376681	-0.2304613825004724	1.9868000997011324	-0.4289107903392401	-0.16175920701033003	1.9853826603333065	-0.6056807715550119	-0.18364273388241534	1.9464695501968408	-0.6817783414899435	-0.18735403876667456	2.0035511144835576	-0.6799899891956814
75	2.5	-0.2013495105821302	1.8260687993540337	-0.5085768360009277	-0.2134942425038086	1.8262479165959251	-0.4504808464961447	-0.22479572080971158	1.6919593712613823	-0.4623577928233546	-0.16517903819369048	1.7129187433288102	-0.399512669541275	-0.19976331644240278	1.6214733391516374	-0.3605781476618763	-0.19842940919339627	1.6308152898252077	-0.3352742818038906	-0.15928303717462788	1.6643269330688435	-0.35279788197621503	-0.19218347515399634	1.8290212988135695	-0.5711027618996166	-0.20439435634044026	1.6942101411488981	-0.5254999121365818	-0.1847988650924055	1.5638438149370935	-0.4968980544448389	-0.2276044385803863	1.531705280763971	-0.5149779957211442	-0.2155902782088514	1.53303116108655	-0.526887346221376	-0.17931911877984558	1.5592454928152748	-0.4976579991913852	-0.17748563167746065	1.9801000978411973	-0.5249075551765096	-0.2067142277978402	2.0421628740751254	-0.5472450756513543	-0.19040831547488238	1.9733007869188217	-0.44048866785985014	-0.21917782266701802	1.9104476417835647	-0.36232632451414615	-0.22228330882748115	1.973818105430928	-0.4161336349394247	-0.16053285314139326	1.9856841411288682	-0.6112862178737498	-0.19421479472840464	1.959552366659623	-0.691694479569601	-0.1848598050335404	2.0249636981996058	-0.6874714360415254
76	2.533333333333333	-0.19943804707062204	1.833876443933668	-0.5171295466435867	-0.21438047578851996	1.8307855969070024	-0.4597263542765214	-0.23125211715269306	1.6951789368284877	-0.4466898887891326	-0.16517903819369048	1.7129187433288102	-0.399512669541275	-0.19976331644240278	1.6214733391516374	-0.3605781476618763	-0.19842940919339627	1.6308152898252077	-0.3352742818038906	-0.15928303717462788	1.6643269330688435	-0.35279788197621503	-0.1898413078447535	1.8357884394636539	-0.5796709020699283	-0.20114259421189587	1.6984649110512913	-0.5294377130188554	-0.18417709665448426	1.5664834708005786	-0.5021090234424027	-0.22687385820471895	1.5334655298401962	-0.5113833565823259	-0.21599315263700947	1.5324654239337328	-0.526148769694001	-0.17761760196240653	1.5610784102844908	-0.49972252398392086	-0.17983177669984768	1.9803566492969489	-0.5235370924133161	-0.2057858692979813	2.0448834663778186	-0.5535421746060829	-0.19085037541578367	1.9739294583734104	-0.4420031504603551	-0.19733342464625575	1.9022526435381377	-0.38601179147856873	-0.2141052351544899	1.9608361111607235	-0.4033564795396092	-0.16513857184531905	1.9855970875694586	-0.6073888332470361	-1.4105582908882033	1.8851257193275948	0.6120759590580191	-0.8429306839288704	1.9638980591662891	0.03316737072456888
77	2.566666666666667	-0.19673368108462064	1.83021856590914	-0.5189856630836513	-0.20917593203655566	1.8266574981083357	-0.4605300064436497	-0.22076760767385373	1.6941121971563686	-0.4536500390065892	-0.16517903819369048	1.7129187433288102	-0.399512669541275	-0.19976331644240278	1.6214733391516374	-0.3605781476618763	-0.19842940919339627	1.6308152898252077	-0.3352742818038906	-0.15928303717462788	1.6643269330688435	-0.35279788197621503	-0.18710130784214332	1.8320079728734764	-0.5815974685125151	-0.20120585247722705	1.7006909794416956	-0.5472499306558392	-0.1825501819560443	1.5746711310198513	-0.5043066573936464	-0.22674420229084766	1.5356353496648438	-0.5116687048778893	-0.2140542168464377	1.5360240734956083	-0.528605904447684	-0.1753800056677828	1.5659366646369146	-0.5028986452547299	-0.18050978513693272	1.9833218548786742	-0.5266853105946029	-0.2044748556937978	2.0450005339614443	-0.5582454054307924	-0.19171131622144044	1.9794463421821944	-0.4548656098231695	-0.18986995833784867	1.9270394083505422	-0.3978468211781407	-2.0992176758953196	1.9170963112037416	1.82130843479315	-0.16467424115703025	1.985666475877115	-0.6060598822727452	-0.9940376778345867	1.9030022555645136	0.17772399203670486	-1.5010015628242004	1.9028324201329727	0.7538061774906631
78	2.6	-0.19795662450943338	1.830195722288784	-0.5169506387138292	-0.21030533384908184	1.827182722473974	-0.4586731341470985	-0.2102830981950144	1.6930454574842495	-0.4606101892240457	-0.16517903819369048	1.7129187433288102	-0.399512669541275	-0.19976331644240278	1.6214733391516374	-0.3605781476618763	-0.19842940919339627	1.6308152898252077	-0.3352742818038906	-0.15928303717462788	1.6643269330688435	-0.35279788197621503	-0.18768948897734927	1.8314796920558354	-0.5760301568827736	-0.19978767093098249	1.6999627200998257	-0.5618579124243255	-0.17878622459705992	1.577249085790366	-0.5082289096354281	-0.21710860489885594	1.5382454809047297	-0.5263606855221856	-0.20461634351130728	1.5432301710118246	-0.5433397726235262	-0.171787319608579	1.5701702088962142	-0.5058920753864746	-0.17816603519600865	1.984813583983886	-0.5375957083077909	-0.20237266337799648	2.0461936314829976	-0.5604011428437271	-0.19045193454138998	1.9822973088010138	-0.4692170348985417	-0.19738098194370365	1.9464825225210751	-0.39336074096395224	-1.7222959537341542	1.9256331180431046	1.3708124458098072	-0.16158247775149118	1.9859020713605224	-0.6052221501088488	-0.5775170647809702	1.9208787918014325	-0.25662797498460943	-0.8350987918429885	1.9468436904846662	0.030449621096333312
79	2.6333333333333333	-0.1966761630093675	1.8302007196969718	-0.5189071264298475	-0.20997336971163022	1.8281362380396613	-0.46387147027019676	-0.21079448085601876	1.6933087644506433	-0.4782676423551088	-0.16517903819369048	1.7129187433288102	-0.399512669541275	-0.19976331644240278	1.6214733391516374	-0.3605781476618763	-0.19842940919339627	1.6308152898252077	-0.3352742818038906	-0.15928303717462788	1.6643269330688435	-0.35279788197621503	-0.18447541080692972	1.830860384506954	-0.5716044759927864	-0.2043759401892542	1.7012933841706566	-0.5483164154802189	-0.181616005688586	1.5682910188404027	-0.5278565678500954	-0.21818437738267152	1.5409550287720244	-0.5398115284465834	-0.20487899874636897	1.5401395181049253	-0.5617052689595547	-0.16942660438030333	1.5623318356512952	-0.5185339160381707	-0.17899273864846033	1.9837769460392711	-0.540565150128953	-0.20328841515238202	2.043446430224643	-0.563214339149092	-0.19427292851526784	1.9821543511978503	-0.4642768219617885	-0.2271132382511977	1.9549637920768408	-0.384967016991629	-1.3453742315729889	1.9341699248824675	0.9203164568264646	-0.15746853039243275	1.9868259255547192	-0.6104896908700017	-0.16099645172735366	1.9387553280383514	-0.6909799420059237	-0.16919602086177657	1.9908549608363597	-0.6929069352979964
80	2.6666666666666665	-0.1944318769617808	1.8277772251519784	-0.5209951094446027	-0.20798347617478777	1.8252999955898837	-0.46577780866716295	-0.21520289366994866	1.6902039660583443	-0.48182892799804933	-0.16517903819369048	1.7129187433288102	-0.399512669541275	-0.19976331644240278	1.6214733391516374	-0.3605781476618763	-0.19842940919339627	1.6308152898252077	-0.3352742818038906	-0.15928303717462788	1.6643269330688435	-0.35279788197621503	-0.18393363187558173	1.8281714155330124	-0.580159158048813	-0.20336618165742096	1.6973577039728935	-0.5359175233454008	-0.18090150118235307	1.561324005230383	-0.5269563891397072	-0.2209642543367342	1.5305571436730145	-0.5435276695273275	-0.21085686302505569	1.5317223854055593	-0.5534819682651116	-0.16884677615077914	1.5559507148785539	-0.5180629130596738	-1.776271357558607	1.8895633188298	1.2185496875547301	-0.20129499463871517	2.042096178170383	-0.565003317085832	-0.19510217136045213	1.978161443786091	-0.46597863538023043	-0.23212916499128225	1.9461029729600419	-0.36039846921904284	-0.9684525094118237	1.9427067317218307	0.4698204678431219	-0.15748508207747092	1.9836022734909282	-0.630019070526608	-0.16436472339222738	1.9509453823626814	-0.7264496681171935	-0.16683668360911869	2.0005875519999345	-0.7079225480804645
